<?xml version="1.0"?><svg version="1.2" baseProfile="tiny-ps" viewBox="0 0 300 300" xmlns="http://www.w3.org/2000/svg" xmlns:xlink="http://www.w3.org/1999/xlink"><title>docuchain_logo</title><g><g fill="#61f682" transform="matrix(.1 0 0 -.1 0 300)"><path d="M877 2990c-260-20-402-73-565-211-74-62-127-127-184-221-47-76-72-142-92-242l-16-76-11-158-11-157 5-540 4-540 16-95c36-211 103-346 242-485C409 120 556 51 785 18l90-13h1250l90 13c229 33 376 102 520 247 145 144 214 291 247 520l13 90v1250l-13 90c-33 229-102 376-247 520-139 139-273 206-485 242l-95 16-585 2-585 3-108-8z"/></g><g fill="#27e6d1" transform="matrix(.1 0 0 -.1 0 300)"><path d="M877 2990c-260-20-402-73-565-211-74-62-127-127-184-221-47-76-72-142-92-242l-16-76-11-158-11-157 5-545 6-545 10-58c5-33 12-61 14-63 7-7 271 98 363 144l80 40 28-49c36-64 131-183 187-234l44-40-135-66c-74-36-191-87-260-114-69-26-129-51-134-56l-8-7 64-65C410 120 554 51 785 18l90-13h1250l90 13c229 33 376 102 520 247 145 144 214 291 247 520l13 90v1250l-13 90c-33 229-102 376-247 520-139 139-273 206-485 242l-95 16-585 2-585 3-108-8zm366-536 72-16 83-40 83-39 68-67 67-67 36-70c42-82 57-133 68-230l8-70-10-89-10-90-25-80c-80-257-269-517-540-744l-50-41-59 43c-70 51-154 140-191 204l-27 45 55 46c30 24 97 88 149 140 141 142 227 271 274 413l26 77v142l-16 32c-9 18-26 42-37 54l-20 23-54 20-54 20h-36c-19 0-54-5-76-12l-41-12-62-58-62-59-40-82c-22-45-47-111-57-147l-17-65-8-115-7-115-2 73-1 73-20 40-21 40-46 30-47 29H474l-45-29-46-28-21-44-22-44v37c0 61 36 227 70 323 40 113 60 151 123 243l50 73 73 68 73 68 68 35c113 59 174 75 296 77l78 1 72-16z"/></g><g fill="#2190fe" transform="matrix(.1 0 0 -.1 0 300)"><path d="M877 2990c-260-20-402-73-565-211-74-62-127-127-184-221-47-76-72-142-92-242l-16-76-11-158-11-157 5-545 6-545 10-58c5-33 12-61 14-63 10-10 407 155 436 182 2 1-13 41-33 88-21 47-49 130-63 183l-25 98-5 167-6 167 18 98 18 98 34 100c42 121 61 159 126 253l50 73 72 68 73 67 61 32c33 18 86 42 118 53l58 20 96 6 96 6 79-17 79-18 83-39 83-40 68-67 67-67 36-70c42-82 57-133 68-230l8-70-10-89-10-90-25-80c-82-262-269-516-558-759l-29-24 41-22c23-11 77-31 120-43l78-22 120 1 120 1 100 26 100 26 110 54 110 55 71 54 71 55 23-56c29-72 92-182 141-249l39-52-92-61c-251-168-533-259-803-260h-80l-95 15-94 16-88 29c-108 36-161 63-268 134-46 31-86 56-90 56s-65-29-136-63c-71-35-185-86-254-112s-129-51-134-56l-8-7 64-65C410 120 554 51 785 18l90-13h1250l90 13c229 33 376 102 520 247 140 139 208 276 241 485l15 95 6 320 5 320-71-123c-99-171-203-323-291-425l-7-8-36 59c-46 74-89 182-117 290l-21 83 66 106c79 125 194 352 263 518 63 153 140 361 148 402l6 32-30 65c-83 178-231 329-407 419-66 33-140 54-255 74l-95 16-585 2-585 3-108-8zm144-933-34-11-63-58-62-59-40-82c-22-45-48-111-58-147l-19-65 1-165v-165l33-97c17-54 34-98 38-98 12 0 164 134 225 199 124 131 209 263 252 393l26 77v142l-16 32c-9 18-26 42-37 54l-20 23-54 20-54 20-42-1c-23-1-57-6-76-12z"/></g><g fill="#6664ff" transform="matrix(.1 0 0 -.1 0 300)"><path d="M877 2989c-257-18-402-72-565-210-74-62-127-127-184-221-47-76-72-142-92-242l-16-76-11-158-11-157 5-545 6-545 10-58c5-33 12-61 14-63 10-10 407 155 436 182 2 1-13 41-33 88-21 47-49 130-63 183l-25 98-5 167-6 167 18 98 18 98 34 100c42 121 61 159 126 253l50 73 72 68 73 67 61 32c33 18 86 42 118 53l58 20 96 6 96 6 79-17 79-18 83-39 83-40 68-67 67-67 36-70c42-82 57-133 68-230l8-70-10-89-10-90-25-80c-82-262-269-516-558-759l-29-24 41-22c23-11 77-31 120-43l78-22 120 1 120 1 100 26 100 26 110 54 110 55 73 56c41 31 75 55 77 53s15-32 29-68c29-72 94-186 138-241 15-20 28-39 28-42 0-11-185-129-262-168-203-102-427-158-633-159h-80l-95 15-94 16-88 29c-108 36-161 63-268 134-46 31-86 56-90 56s-65-29-136-63c-71-35-185-86-254-112s-129-51-134-56l-8-7 64-65C410 120 554 51 785 18l90-13h1250l90 13c229 33 376 102 520 247 140 139 208 276 241 485l15 95 6 320 5 320-71-123c-86-149-154-251-235-354l-60-77-18 16c-10 9-40 59-67 112-69 135-102 161-202 161h-50l-32-14c-18-7-47-28-64-46l-33-32-17-54-17-55-9 16c-18 32-68 251-84 369l-17 121v430l12 115c26 247 75 530 133 773l31 128-7 7c-4 4-50 10-103 13-134 9-1083 8-1215-2zm1710-146c-10-16-78-334-102-476-13-80-31-211-40-291l-15-145v-372l12-95c6-52 14-94 17-94 13 0 143 222 214 365 103 207 267 621 267 673 0 26-54 134-101 204-47 69-169 193-217 221l-31 17-4-7zm-1566-786-34-11-63-58-62-59-40-82c-22-45-48-111-58-147l-19-65 1-165v-165l33-97c17-54 34-98 38-98 12 0 164 134 225 199 124 131 209 263 252 393l26 77v142l-16 32c-9 18-26 42-37 54l-20 23-54 20-54 20-42-1c-23-1-57-6-76-12z"/></g><g fill="#23726a" transform="matrix(.1 0 0 -.1 0 300)"><path d="M877 2989c-257-18-402-72-565-210-74-62-127-127-184-221-47-76-72-142-92-242l-16-76-11-158-11-157 5-545 6-545 10-58c5-33 12-61 14-63 10-10 407 155 436 182 2 1-13 41-33 88-21 47-49 130-63 183l-25 98-5 167-6 167 18 98 18 98 34 100c42 121 61 159 126 253l50 73 72 68 73 67 61 32c33 18 86 42 118 53l58 20 96 6 96 6 79-17 79-18 83-39 83-40 68-67 67-67 36-70c42-82 57-133 68-230l8-70-10-89-10-90-25-80c-82-262-269-516-558-759l-29-24 41-22c23-11 77-31 120-43l78-22 120 1 120 1 98 25 98 26 94 45c96 45 158 83 232 143l42 34-19 55c-27 78-67 263-81 379l-13 100v420l12 115c26 246 75 530 133 773l31 128-7 7c-4 4-50 10-103 13-134 9-1083 8-1215-2zm1710-146c-10-16-78-334-102-476-13-80-31-211-40-291l-15-145v-372l12-95c6-52 14-94 17-94 13 0 143 222 214 365 103 207 267 621 267 673 0 26-54 134-101 204-47 69-169 193-217 221l-31 17-4-7zm-1566-786-34-11-63-58-62-59-40-82c-22-45-48-111-58-147l-19-65 1-165v-165l33-97c17-54 34-98 38-98 12 0 164 134 225 199 124 131 209 263 252 393l26 77v142l-16 32c-9 18-26 42-37 54l-20 23-54 20-54 20-42-1c-23-1-57-6-76-12zm1924-670c-64-116-187-304-253-386-29-35-52-69-52-76 0-16 105-115 155-147 22-14 69-37 105-51l65-26 7 27c4 15 13 99 18 187l11 160-3 201-3 202-50-91zm-689-802c-242-167-539-264-811-265h-80l-95 15-94 16-88 29c-108 36-161 63-268 134-46 31-86 56-90 56s-65-29-136-63c-71-35-185-86-254-112s-129-51-134-56l-8-7 64-65C410 120 554 51 785 18l90-13h1250l90 13c176 25 276 61 398 144 60 41 177 150 177 164 0 5-32 22-71 38l-72 29-86 58-86 58-65 65c-35 36-67 66-70 66s-41-25-84-55z"/></g><g fill="#050e19" transform="matrix(.1 0 0 -.1 0 300)"><path d="M877 2989c-257-18-402-72-565-210-74-62-127-127-184-221-72-118-102-233-118-455L0 1965v-930l10-140c6-77 13-148 16-158l6-19 26 7c69 17 375 147 401 171 1 1-15 49-37 106l-40 103-24 105-23 105 1 170 1 170 21 91c11 50 36 132 55 182l34 92 49 82 49 82 86 87 86 87 94 46 94 47 85 15 85 15 65-6c144-14 267-61 372-141l56-44 36-48c19-27 49-76 65-108l29-59 16-77 16-77v-68c-1-83-21-197-50-283-70-207-241-456-430-628-36-32-83-75-105-95l-40-36 47-21c26-11 82-30 124-40l77-20h185l74 14c167 32 350 119 493 234l28 22-26 88c-36 117-55 212-72 362l-15 125v160c0 182 11 334 41 550 21 154 84 482 119 615 10 41 17 77 14 80-13 12-232 18-704 18-278-1-554-4-613-9zm1685-266c-79-333-119-610-129-898l-6-180 13-120c6-66 15-126 19-132l7-13 62 100c73 117 171 308 241 472 43 101 145 375 166 446l7 23-30 64c-17 35-50 92-73 127-47 69-168 192-217 221l-30 17-30-127zm-1562-684-45-20-46-49-46-49-37-74c-20-40-45-109-57-153l-22-79v-135l-1-135 23-84c12-46 29-97 37-112l15-29 19 10c35 18 249 231 296 293 104 139 168 279 180 394l6 58-11 42-12 42-26 32-27 32-41 18-40 19h-120l-45-21zm1959-637c-63-118-162-271-242-374l-78-100 27-35c49-65 193-158 275-178l26-6 7 23c3 13 11 95 16 183l11 160-3 197-3 196-36-66zm-689-812c-132-100-347-197-527-239l-93-22-112-7-113-7-82 7c-106 9-233 41-340 85l-84 35-95 64-95 64-127-64c-70-35-189-87-264-116l-137-53 26-34c15-19 54-58 89-86C435 118 544 64 683 36l77-16L918 9l157-11 540 5 540 4 95 16c163 28 244 59 363 139 65 44 183 155 174 164-3 4-39 21-80 39-102 44-206 115-296 202-42 40-76 73-76 72 0 0-29-23-65-49z"/></g></g></svg>